# xmcd
# 
# Track frame offsets:
#     150
#     15274
#     30656
#     45037
#     58166
#     70353
#     91791
#     108608
#     132040
#     146317
#     164869
#     179498
# 
# Disc length: 2590
# 
# Revision: 3
# Processed by: cddbd v1.5.2PL0 Copyright (c) Steve Scherf et al.
# Submitted via: BonkEnc v1.0.8
# 
DISCID=9b0a1c0c
DTITLE=Kasa Chorych - Chcę Cię Kochać
DYEAR=1998
DGENRE=Blues
TTITLE0=Chcę Cię Kochać
TTITLE1=Jeszcze Tylko Parę Mil
TTITLE2=Chcę Żyć
TTITLE3=Nie Stój W Miejscu
TTITLE4=Po Długich Przemyćleniach Radzimy Panu
TTITLE5=Rób Co Chcesz
TTITLE6=Zostań
TTITLE7=Nie Ostatni Blues
TTITLE8=Pływasz
TTITLE9=Dwa Razy "m"
TTITLE10=Plan
TTITLE11=Gdybym Tak Spotkał
EXTD=
EXTT0=
EXTT1=
EXTT2=
EXTT3=
EXTT4=
EXTT5=
EXTT6=
EXTT7=
EXTT8=
EXTT9=
EXTT10=
EXTT11=
PLAYORDER=
